<svg width="32" height="32" viewBox="0 0 32 32" fill="none" xmlns="http://www.w3.org/2000/svg">
<path d="M4.00004 28.479C4.04847 28.479 4.09664 28.4719 4.14304 28.458L14.143 25.479C14.2235 25.4551 14.2967 25.4114 14.356 25.352L24.446 15.147C24.469 15.123 24.481 15.094 24.498 15.067L28.156 11.409C28.4476 11.1166 28.6114 10.7205 28.6114 10.3075C28.6114 9.89455 28.4476 9.49844 28.156 9.20601L22.92 3.97201C22.6279 3.68024 22.2319 3.51636 21.819 3.51636C21.4062 3.51636 21.0102 3.68024 20.718 3.97201L16.979 7.71101C16.955 7.73501 16.943 7.76501 16.925 7.79201L6.80704 17.911C6.75109 17.9667 6.70926 18.0349 6.68504 18.11L3.52504 27.825C3.50077 27.9 3.49456 27.9796 3.50692 28.0575C3.51929 28.1353 3.54987 28.2091 3.59618 28.2728C3.64249 28.3366 3.70321 28.3885 3.77339 28.4243C3.84358 28.4602 3.92124 28.4789 4.00004 28.479ZM17.359 8.77101L18.399 9.81101L9.87604 18.374L8.14904 17.982L17.359 8.77101ZM10.5 19.165L19.107 10.519L21.541 12.953L12.796 21.5H10.5V19.165ZM23.385 14.797L14.139 24.149L13.563 22.15L22.247 13.661L23.385 14.797ZM7.49304 18.859L9.50004 19.315V22C9.50004 22.1326 9.55272 22.2598 9.64649 22.3536C9.74025 22.4473 9.86743 22.5 10 22.5H12.624L13.257 24.7L4.77004 27.228L7.49304 18.859ZM21.425 4.67901C21.5299 4.5752 21.6715 4.51696 21.819 4.51696C21.9666 4.51696 22.1082 4.5752 22.213 4.67901L27.448 9.91401C27.5526 10.0187 27.6114 10.1606 27.6114 10.3085C27.6114 10.4565 27.5526 10.5984 27.448 10.703L24.076 14.075L18.053 8.05201L21.425 4.67901Z" fill="black"/>
</svg>
